<?xml version="1.0" encoding="UTF-8" standalone="no"?>
<!DOCTYPE svg PUBLIC "-//W3C//DTD SVG 1.1//EN"
 "http://www.w3.org/Graphics/SVG/1.1/DTD/svg11.dtd">
<!-- Generated by graphviz version 2.46.1 (20210213.1702)
 -->
<!-- Pages: 1 -->
<svg width="1706pt" height="548pt"
 viewBox="0.00 0.00 1705.50 548.00" xmlns="http://www.w3.org/2000/svg" xmlns:xlink="http://www.w3.org/1999/xlink">
<g id="graph0" class="graph" transform="scale(1 1) rotate(0) translate(4 544)">
<polygon fill="white" stroke="transparent" points="-4,4 -4,-544 1701.5,-544 1701.5,4 -4,4"/>
<!-- [root] aiven_connection_pool.sample_pool (expand) -->
<g id="node1" class="node">
<title>[root] aiven_connection_pool.sample_pool (expand)</title>
<polygon fill="none" stroke="black" points="1697.5,-396 1481.5,-396 1481.5,-360 1697.5,-360 1697.5,-396"/>
<text text-anchor="middle" x="1589.5" y="-374.3" font-family="Times,serif" font-size="14.00">aiven_connection_pool.sample_pool</text>
</g>
<!-- [root] aiven_database.sample_db (expand) -->
<g id="node2" class="node">
<title>[root] aiven_database.sample_db (expand)</title>
<polygon fill="none" stroke="black" points="1358.5,-324 1196.5,-324 1196.5,-288 1358.5,-288 1358.5,-324"/>
<text text-anchor="middle" x="1277.5" y="-302.3" font-family="Times,serif" font-size="14.00">aiven_database.sample_db</text>
</g>
<!-- [root] aiven_connection_pool.sample_pool (expand)&#45;&gt;[root] aiven_database.sample_db (expand) -->
<g id="edge1" class="edge">
<title>[root] aiven_connection_pool.sample_pool (expand)&#45;&gt;[root] aiven_database.sample_db (expand)</title>
<path fill="none" stroke="black" d="M1513.58,-359.97C1468.19,-349.78 1410.4,-336.82 1363.36,-326.26"/>
<polygon fill="black" stroke="black" points="1364.02,-322.82 1353.49,-324.05 1362.49,-329.65 1364.02,-322.82"/>
</g>
<!-- [root] aiven_service_user.sample_user (expand) -->
<g id="node14" class="node">
<title>[root] aiven_service_user.sample_user (expand)</title>
<polygon fill="none" stroke="black" points="1626,-324 1435,-324 1435,-288 1626,-288 1626,-324"/>
<text text-anchor="middle" x="1530.5" y="-302.3" font-family="Times,serif" font-size="14.00">aiven_service_user.sample_user</text>
</g>
<!-- [root] aiven_connection_pool.sample_pool (expand)&#45;&gt;[root] aiven_service_user.sample_user (expand) -->
<g id="edge2" class="edge">
<title>[root] aiven_connection_pool.sample_pool (expand)&#45;&gt;[root] aiven_service_user.sample_user (expand)</title>
<path fill="none" stroke="black" d="M1574.92,-359.7C1567.84,-351.3 1559.22,-341.07 1551.45,-331.86"/>
<polygon fill="black" stroke="black" points="1554.04,-329.49 1544.92,-324.1 1548.69,-334.01 1554.04,-329.49"/>
</g>
<!-- [root] aiven_service.samplepg (expand) -->
<g id="node9" class="node">
<title>[root] aiven_service.samplepg (expand)</title>
<polygon fill="none" stroke="black" points="941,-252 794,-252 794,-216 941,-216 941,-252"/>
<text text-anchor="middle" x="867.5" y="-230.3" font-family="Times,serif" font-size="14.00">aiven_service.samplepg</text>
</g>
<!-- [root] aiven_database.sample_db (expand)&#45;&gt;[root] aiven_service.samplepg (expand) -->
<g id="edge3" class="edge">
<title>[root] aiven_database.sample_db (expand)&#45;&gt;[root] aiven_service.samplepg (expand)</title>
<path fill="none" stroke="black" d="M1196.5,-291.17C1125.51,-279.05 1022.74,-261.5 951.01,-249.26"/>
<polygon fill="black" stroke="black" points="951.55,-245.8 941.1,-247.57 950.37,-252.7 951.55,-245.8"/>
</g>
<!-- [root] aiven_kafka_acl.sample_acl (expand) -->
<g id="node3" class="node">
<title>[root] aiven_kafka_acl.sample_acl (expand)</title>
<polygon fill="none" stroke="black" points="1251.5,-396 1081.5,-396 1081.5,-360 1251.5,-360 1251.5,-396"/>
<text text-anchor="middle" x="1166.5" y="-374.3" font-family="Times,serif" font-size="14.00">aiven_kafka_acl.sample_acl</text>
</g>
<!-- [root] aiven_service.samplekafka (expand) -->
<g id="node8" class="node">
<title>[root] aiven_service.samplekafka (expand)</title>
<polygon fill="none" stroke="black" points="1062.5,-324 898.5,-324 898.5,-288 1062.5,-288 1062.5,-324"/>
<text text-anchor="middle" x="980.5" y="-302.3" font-family="Times,serif" font-size="14.00">aiven_service.samplekafka</text>
</g>
<!-- [root] aiven_kafka_acl.sample_acl (expand)&#45;&gt;[root] aiven_service.samplekafka (expand) -->
<g id="edge4" class="edge">
<title>[root] aiven_kafka_acl.sample_acl (expand)&#45;&gt;[root] aiven_service.samplekafka (expand)</title>
<path fill="none" stroke="black" d="M1121,-359.88C1095.12,-350.14 1062.53,-337.87 1035.26,-327.61"/>
<polygon fill="black" stroke="black" points="1036.44,-324.31 1025.85,-324.07 1033.98,-330.87 1036.44,-324.31"/>
</g>
<!-- [root] aiven_kafka_topic.sample_topic (expand) -->
<g id="node4" class="node">
<title>[root] aiven_kafka_topic.sample_topic (expand)</title>
<polygon fill="none" stroke="black" points="1463,-396 1270,-396 1270,-360 1463,-360 1463,-396"/>
<text text-anchor="middle" x="1366.5" y="-374.3" font-family="Times,serif" font-size="14.00">aiven_kafka_topic.sample_topic</text>
</g>
<!-- [root] aiven_kafka_topic.sample_topic (expand)&#45;&gt;[root] aiven_service.samplekafka (expand) -->
<g id="edge5" class="edge">
<title>[root] aiven_kafka_topic.sample_topic (expand)&#45;&gt;[root] aiven_service.samplekafka (expand)</title>
<path fill="none" stroke="black" d="M1272.57,-359.97C1211.79,-348.94 1133.04,-334.66 1072.62,-323.71"/>
<polygon fill="black" stroke="black" points="1073.17,-320.25 1062.71,-321.91 1071.93,-327.14 1073.17,-320.25"/>
</g>
<!-- [root] aiven_project.sample (expand) -->
<g id="node5" class="node">
<title>[root] aiven_project.sample (expand)</title>
<polygon fill="none" stroke="black" points="711,-180 578,-180 578,-144 711,-144 711,-180"/>
<text text-anchor="middle" x="644.5" y="-158.3" font-family="Times,serif" font-size="14.00">aiven_project.sample</text>
</g>
<!-- [root] provider[&quot;registry.terraform.io/aiven/aiven&quot;] -->
<g id="node15" class="node">
<title>[root] provider[&quot;registry.terraform.io/aiven/aiven&quot;]</title>
<polygon fill="none" stroke="black" points="331.5,-108 92.54,-90 331.5,-72 570.46,-90 331.5,-108"/>
<text text-anchor="middle" x="331.5" y="-86.3" font-family="Times,serif" font-size="14.00">provider[&quot;registry.terraform.io/aiven/aiven&quot;]</text>
</g>
<!-- [root] aiven_project.sample (expand)&#45;&gt;[root] provider[&quot;registry.terraform.io/aiven/aiven&quot;] -->
<g id="edge6" class="edge">
<title>[root] aiven_project.sample (expand)&#45;&gt;[root] provider[&quot;registry.terraform.io/aiven/aiven&quot;]</title>
<path fill="none" stroke="black" d="M577.74,-146.07C524.86,-134.24 451.34,-117.8 398.42,-105.97"/>
<polygon fill="black" stroke="black" points="398.98,-102.5 388.46,-103.74 397.45,-109.34 398.98,-102.5"/>
</g>
<!-- [root] var.aiven_card_id -->
<g id="node17" class="node">
<title>[root] var.aiven_card_id</title>
<polygon fill="none" stroke="black" points="695,-108 588,-108 588,-72 701,-72 701,-102 695,-108"/>
<polyline fill="none" stroke="black" points="695,-108 695,-102 "/>
<polyline fill="none" stroke="black" points="701,-102 695,-102 "/>
<text text-anchor="middle" x="644.5" y="-86.3" font-family="Times,serif" font-size="14.00">var.aiven_card_id</text>
</g>
<!-- [root] aiven_project.sample (expand)&#45;&gt;[root] var.aiven_card_id -->
<g id="edge7" class="edge">
<title>[root] aiven_project.sample (expand)&#45;&gt;[root] var.aiven_card_id</title>
<path fill="none" stroke="black" d="M644.5,-143.7C644.5,-135.98 644.5,-126.71 644.5,-118.11"/>
<polygon fill="black" stroke="black" points="648,-118.1 644.5,-108.1 641,-118.1 648,-118.1"/>
</g>
<!-- [root] var.aiven_project_name -->
<g id="node18" class="node">
<title>[root] var.aiven_project_name</title>
<polygon fill="none" stroke="black" points="860,-108 719,-108 719,-72 866,-72 866,-102 860,-108"/>
<polyline fill="none" stroke="black" points="860,-108 860,-102 "/>
<polyline fill="none" stroke="black" points="866,-102 860,-102 "/>
<text text-anchor="middle" x="792.5" y="-86.3" font-family="Times,serif" font-size="14.00">var.aiven_project_name</text>
</g>
<!-- [root] aiven_project.sample (expand)&#45;&gt;[root] var.aiven_project_name -->
<g id="edge8" class="edge">
<title>[root] aiven_project.sample (expand)&#45;&gt;[root] var.aiven_project_name</title>
<path fill="none" stroke="black" d="M680.7,-143.88C700.76,-134.39 725.87,-122.51 747.21,-112.42"/>
<polygon fill="black" stroke="black" points="748.87,-115.51 756.41,-108.07 745.88,-109.18 748.87,-115.51"/>
</g>
<!-- [root] aiven_service.samplegrafana (expand) -->
<g id="node6" class="node">
<title>[root] aiven_service.samplegrafana (expand)</title>
<polygon fill="none" stroke="black" points="462.5,-252 288.5,-252 288.5,-216 462.5,-216 462.5,-252"/>
<text text-anchor="middle" x="375.5" y="-230.3" font-family="Times,serif" font-size="14.00">aiven_service.samplegrafana</text>
</g>
<!-- [root] aiven_service.samplegrafana (expand)&#45;&gt;[root] aiven_project.sample (expand) -->
<g id="edge9" class="edge">
<title>[root] aiven_service.samplegrafana (expand)&#45;&gt;[root] aiven_project.sample (expand)</title>
<path fill="none" stroke="black" d="M440.96,-215.97C479.61,-205.91 528.69,-193.14 568.97,-182.65"/>
<polygon fill="black" stroke="black" points="569.95,-186.02 578.75,-180.11 568.19,-179.24 569.95,-186.02"/>
</g>
<!-- [root] aiven_service.sampleinflux (expand) -->
<g id="node7" class="node">
<title>[root] aiven_service.sampleinflux (expand)</title>
<polygon fill="none" stroke="black" points="601,-324 436,-324 436,-288 601,-288 601,-324"/>
<text text-anchor="middle" x="518.5" y="-302.3" font-family="Times,serif" font-size="14.00">aiven_service.sampleinflux</text>
</g>
<!-- [root] aiven_service.sampleinflux (expand)&#45;&gt;[root] aiven_project.sample (expand) -->
<g id="edge10" class="edge">
<title>[root] aiven_service.sampleinflux (expand)&#45;&gt;[root] aiven_project.sample (expand)</title>
<path fill="none" stroke="black" d="M533.7,-287.87C555.84,-262.92 597.07,-216.45 622.52,-187.77"/>
<polygon fill="black" stroke="black" points="625.23,-189.99 629.25,-180.19 619.99,-185.35 625.23,-189.99"/>
</g>
<!-- [root] aiven_service.samplekafka (expand)&#45;&gt;[root] aiven_project.sample (expand) -->
<g id="edge11" class="edge">
<title>[root] aiven_service.samplekafka (expand)&#45;&gt;[root] aiven_project.sample (expand)</title>
<path fill="none" stroke="black" d="M898.48,-288.45C862.92,-279.83 821.31,-267.74 785.5,-252 745.09,-234.23 702.79,-206.05 675.19,-186.17"/>
<polygon fill="black" stroke="black" points="676.91,-183.09 666.77,-180.03 672.79,-188.75 676.91,-183.09"/>
</g>
<!-- [root] aiven_service.samplepg (expand)&#45;&gt;[root] aiven_project.sample (expand) -->
<g id="edge12" class="edge">
<title>[root] aiven_service.samplepg (expand)&#45;&gt;[root] aiven_project.sample (expand)</title>
<path fill="none" stroke="black" d="M813.23,-215.97C781.67,-206.06 741.71,-193.51 708.6,-183.12"/>
<polygon fill="black" stroke="black" points="709.6,-179.77 699.01,-180.11 707.5,-186.45 709.6,-179.77"/>
</g>
<!-- [root] aiven_service_integration.samplegrafana_dashboards (expand) -->
<g id="node10" class="node">
<title>[root] aiven_service_integration.samplegrafana_dashboards (expand)</title>
<polygon fill="none" stroke="black" points="307,-396 0,-396 0,-360 307,-360 307,-396"/>
<text text-anchor="middle" x="153.5" y="-374.3" font-family="Times,serif" font-size="14.00">aiven_service_integration.samplegrafana_dashboards</text>
</g>
<!-- [root] aiven_service_integration.samplegrafana_dashboards (expand)&#45;&gt;[root] aiven_service.samplegrafana (expand) -->
<g id="edge13" class="edge">
<title>[root] aiven_service_integration.samplegrafana_dashboards (expand)&#45;&gt;[root] aiven_service.samplegrafana (expand)</title>
<path fill="none" stroke="black" d="M180.28,-359.87C220.28,-334.28 295.69,-286.05 340.16,-257.6"/>
<polygon fill="black" stroke="black" points="342.09,-260.53 348.63,-252.19 338.32,-254.63 342.09,-260.53"/>
</g>
<!-- [root] aiven_service_integration.samplegrafana_dashboards (expand)&#45;&gt;[root] aiven_service.sampleinflux (expand) -->
<g id="edge14" class="edge">
<title>[root] aiven_service_integration.samplegrafana_dashboards (expand)&#45;&gt;[root] aiven_service.sampleinflux (expand)</title>
<path fill="none" stroke="black" d="M242.32,-359.97C297.96,-349.3 369.54,-335.57 425.88,-324.76"/>
<polygon fill="black" stroke="black" points="426.7,-328.17 435.86,-322.85 425.38,-321.3 426.7,-328.17"/>
</g>
<!-- [root] aiven_service_integration.samplekafka_metrics (expand) -->
<g id="node11" class="node">
<title>[root] aiven_service_integration.samplekafka_metrics (expand)</title>
<polygon fill="none" stroke="black" points="879.5,-396 603.5,-396 603.5,-360 879.5,-360 879.5,-396"/>
<text text-anchor="middle" x="741.5" y="-374.3" font-family="Times,serif" font-size="14.00">aiven_service_integration.samplekafka_metrics</text>
</g>
<!-- [root] aiven_service_integration.samplekafka_metrics (expand)&#45;&gt;[root] aiven_service.sampleinflux (expand) -->
<g id="edge15" class="edge">
<title>[root] aiven_service_integration.samplekafka_metrics (expand)&#45;&gt;[root] aiven_service.sampleinflux (expand)</title>
<path fill="none" stroke="black" d="M687.23,-359.97C655.67,-350.06 615.71,-337.51 582.6,-327.12"/>
<polygon fill="black" stroke="black" points="583.6,-323.77 573.01,-324.11 581.5,-330.45 583.6,-323.77"/>
</g>
<!-- [root] aiven_service_integration.samplekafka_metrics (expand)&#45;&gt;[root] aiven_service.samplekafka (expand) -->
<g id="edge16" class="edge">
<title>[root] aiven_service_integration.samplekafka_metrics (expand)&#45;&gt;[root] aiven_service.samplekafka (expand)</title>
<path fill="none" stroke="black" d="M799.66,-359.97C833.63,-350.01 876.68,-337.41 912.26,-326.99"/>
<polygon fill="black" stroke="black" points="913.47,-330.28 922.08,-324.11 911.5,-323.56 913.47,-330.28"/>
</g>
<!-- [root] aiven_service_integration.samplepg_metrics (expand) -->
<g id="node12" class="node">
<title>[root] aiven_service_integration.samplepg_metrics (expand)</title>
<polygon fill="none" stroke="black" points="585.5,-396 325.5,-396 325.5,-360 585.5,-360 585.5,-396"/>
<text text-anchor="middle" x="455.5" y="-374.3" font-family="Times,serif" font-size="14.00">aiven_service_integration.samplepg_metrics</text>
</g>
<!-- [root] aiven_service_integration.samplepg_metrics (expand)&#45;&gt;[root] aiven_service.sampleinflux (expand) -->
<g id="edge17" class="edge">
<title>[root] aiven_service_integration.samplepg_metrics (expand)&#45;&gt;[root] aiven_service.sampleinflux (expand)</title>
<path fill="none" stroke="black" d="M471.07,-359.7C478.7,-351.22 488.02,-340.86 496.38,-331.58"/>
<polygon fill="black" stroke="black" points="499.02,-333.88 503.11,-324.1 493.81,-329.2 499.02,-333.88"/>
</g>
<!-- [root] aiven_service_integration.samplepg_metrics (expand)&#45;&gt;[root] aiven_service.samplepg (expand) -->
<g id="edge18" class="edge">
<title>[root] aiven_service_integration.samplepg_metrics (expand)&#45;&gt;[root] aiven_service.samplepg (expand)</title>
<path fill="none" stroke="black" d="M505.09,-359.94C535.28,-349.56 574.61,-336.02 609.5,-324 677.68,-300.51 755.98,-273.49 808.27,-255.45"/>
<polygon fill="black" stroke="black" points="809.73,-258.64 818.04,-252.07 807.45,-252.03 809.73,-258.64"/>
</g>
<!-- [root] aiven_service_user.kafka_a (expand) -->
<g id="node13" class="node">
<title>[root] aiven_service_user.kafka_a (expand)</title>
<polygon fill="none" stroke="black" points="1063.5,-396 897.5,-396 897.5,-360 1063.5,-360 1063.5,-396"/>
<text text-anchor="middle" x="980.5" y="-374.3" font-family="Times,serif" font-size="14.00">aiven_service_user.kafka_a</text>
</g>
<!-- [root] aiven_service_user.kafka_a (expand)&#45;&gt;[root] aiven_service.samplekafka (expand) -->
<g id="edge19" class="edge">
<title>[root] aiven_service_user.kafka_a (expand)&#45;&gt;[root] aiven_service.samplekafka (expand)</title>
<path fill="none" stroke="black" d="M980.5,-359.7C980.5,-351.98 980.5,-342.71 980.5,-334.11"/>
<polygon fill="black" stroke="black" points="984,-334.1 980.5,-324.1 977,-334.1 984,-334.1"/>
</g>
<!-- [root] aiven_service_user.sample_user (expand)&#45;&gt;[root] aiven_service.samplepg (expand) -->
<g id="edge20" class="edge">
<title>[root] aiven_service_user.sample_user (expand)&#45;&gt;[root] aiven_service.samplepg (expand)</title>
<path fill="none" stroke="black" d="M1434.8,-294.9C1304.87,-281.18 1074.75,-256.88 951.3,-243.85"/>
<polygon fill="black" stroke="black" points="951.46,-240.34 941.14,-242.78 950.72,-247.31 951.46,-240.34"/>
</g>
<!-- [root] var.aiven_api_token -->
<g id="node16" class="node">
<title>[root] var.aiven_api_token</title>
<polygon fill="none" stroke="black" points="388.5,-36 268.5,-36 268.5,0 394.5,0 394.5,-30 388.5,-36"/>
<polyline fill="none" stroke="black" points="388.5,-36 388.5,-30 "/>
<polyline fill="none" stroke="black" points="394.5,-30 388.5,-30 "/>
<text text-anchor="middle" x="331.5" y="-14.3" font-family="Times,serif" font-size="14.00">var.aiven_api_token</text>
</g>
<!-- [root] provider[&quot;registry.terraform.io/aiven/aiven&quot;]&#45;&gt;[root] var.aiven_api_token -->
<g id="edge35" class="edge">
<title>[root] provider[&quot;registry.terraform.io/aiven/aiven&quot;]&#45;&gt;[root] var.aiven_api_token</title>
<path fill="none" stroke="black" d="M331.5,-71.7C331.5,-63.98 331.5,-54.71 331.5,-46.11"/>
<polygon fill="black" stroke="black" points="335,-46.1 331.5,-36.1 328,-46.1 335,-46.1"/>
</g>
<!-- [root] meta.count&#45;boundary (EachMode fixup) -->
<g id="node19" class="node">
<title>[root] meta.count&#45;boundary (EachMode fixup)</title>
<ellipse fill="none" stroke="black" cx="747.5" cy="-450" rx="176.27" ry="18"/>
<text text-anchor="middle" x="747.5" y="-446.3" font-family="Times,serif" font-size="14.00">[root] meta.count&#45;boundary (EachMode fixup)</text>
</g>
<!-- [root] meta.count&#45;boundary (EachMode fixup)&#45;&gt;[root] aiven_connection_pool.sample_pool (expand) -->
<g id="edge21" class="edge">
<title>[root] meta.count&#45;boundary (EachMode fixup)&#45;&gt;[root] aiven_connection_pool.sample_pool (expand)</title>
<path fill="none" stroke="black" d="M871.36,-437.19C891.78,-435.36 912.73,-433.57 932.5,-432 1169,-413.25 1231.6,-421.09 1471.41,-396.07"/>
<polygon fill="black" stroke="black" points="1471.91,-399.53 1481.49,-395.01 1471.17,-392.57 1471.91,-399.53"/>
</g>
<!-- [root] meta.count&#45;boundary (EachMode fixup)&#45;&gt;[root] aiven_kafka_acl.sample_acl (expand) -->
<g id="edge22" class="edge">
<title>[root] meta.count&#45;boundary (EachMode fixup)&#45;&gt;[root] aiven_kafka_acl.sample_acl (expand)</title>
<path fill="none" stroke="black" d="M838.63,-434.57C901.33,-424.54 986.82,-410.67 1071.41,-396.17"/>
<polygon fill="black" stroke="black" points="1072.19,-399.59 1081.46,-394.45 1071.01,-392.69 1072.19,-399.59"/>
</g>
<!-- [root] meta.count&#45;boundary (EachMode fixup)&#45;&gt;[root] aiven_kafka_topic.sample_topic (expand) -->
<g id="edge23" class="edge">
<title>[root] meta.count&#45;boundary (EachMode fixup)&#45;&gt;[root] aiven_kafka_topic.sample_topic (expand)</title>
<path fill="none" stroke="black" d="M870.44,-437.1C992.68,-425.13 1172.96,-407.07 1259.67,-396.05"/>
<polygon fill="black" stroke="black" points="1260.3,-399.5 1269.77,-394.74 1259.4,-392.56 1260.3,-399.5"/>
</g>
<!-- [root] meta.count&#45;boundary (EachMode fixup)&#45;&gt;[root] aiven_service_integration.samplegrafana_dashboards (expand) -->
<g id="edge24" class="edge">
<title>[root] meta.count&#45;boundary (EachMode fixup)&#45;&gt;[root] aiven_service_integration.samplegrafana_dashboards (expand)</title>
<path fill="none" stroke="black" d="M636.82,-435.96C544.24,-425.05 411.15,-409.36 308.06,-397.21"/>
<polygon fill="black" stroke="black" points="308.2,-393.71 297.86,-396.01 307.38,-400.66 308.2,-393.71"/>
</g>
<!-- [root] meta.count&#45;boundary (EachMode fixup)&#45;&gt;[root] aiven_service_integration.samplekafka_metrics (expand) -->
<g id="edge25" class="edge">
<title>[root] meta.count&#45;boundary (EachMode fixup)&#45;&gt;[root] aiven_service_integration.samplekafka_metrics (expand)</title>
<path fill="none" stroke="black" d="M746.02,-431.7C745.36,-423.98 744.56,-414.71 743.82,-406.11"/>
<polygon fill="black" stroke="black" points="747.31,-405.77 742.97,-396.1 740.33,-406.37 747.31,-405.77"/>
</g>
<!-- [root] meta.count&#45;boundary (EachMode fixup)&#45;&gt;[root] aiven_service_integration.samplepg_metrics (expand) -->
<g id="edge26" class="edge">
<title>[root] meta.count&#45;boundary (EachMode fixup)&#45;&gt;[root] aiven_service_integration.samplepg_metrics (expand)</title>
<path fill="none" stroke="black" d="M681.97,-433.29C638.89,-422.96 582.22,-409.38 536.34,-398.38"/>
<polygon fill="black" stroke="black" points="536.97,-394.93 526.43,-396 535.34,-401.74 536.97,-394.93"/>
</g>
<!-- [root] meta.count&#45;boundary (EachMode fixup)&#45;&gt;[root] aiven_service_user.kafka_a (expand) -->
<g id="edge27" class="edge">
<title>[root] meta.count&#45;boundary (EachMode fixup)&#45;&gt;[root] aiven_service_user.kafka_a (expand)</title>
<path fill="none" stroke="black" d="M801.25,-432.85C834.78,-422.78 878.21,-409.73 913.92,-399"/>
<polygon fill="black" stroke="black" points="915.2,-402.27 923.77,-396.04 913.19,-395.57 915.2,-402.27"/>
</g>
<!-- [root] provider[&quot;registry.terraform.io/aiven/aiven&quot;] (close) -->
<g id="node20" class="node">
<title>[root] provider[&quot;registry.terraform.io/aiven/aiven&quot;] (close)</title>
<ellipse fill="none" stroke="black" cx="1159.5" cy="-450" rx="217.96" ry="18"/>
<text text-anchor="middle" x="1159.5" y="-446.3" font-family="Times,serif" font-size="14.00">[root] provider[&quot;registry.terraform.io/aiven/aiven&quot;] (close)</text>
</g>
<!-- [root] provider[&quot;registry.terraform.io/aiven/aiven&quot;] (close)&#45;&gt;[root] aiven_connection_pool.sample_pool (expand) -->
<g id="edge28" class="edge">
<title>[root] provider[&quot;registry.terraform.io/aiven/aiven&quot;] (close)&#45;&gt;[root] aiven_connection_pool.sample_pool (expand)</title>
<path fill="none" stroke="black" d="M1253.33,-433.72C1318.46,-423.12 1405.6,-408.94 1474.85,-397.66"/>
<polygon fill="black" stroke="black" points="1475.62,-401.08 1484.93,-396.02 1474.5,-394.18 1475.62,-401.08"/>
</g>
<!-- [root] provider[&quot;registry.terraform.io/aiven/aiven&quot;] (close)&#45;&gt;[root] aiven_kafka_acl.sample_acl (expand) -->
<g id="edge29" class="edge">
<title>[root] provider[&quot;registry.terraform.io/aiven/aiven&quot;] (close)&#45;&gt;[root] aiven_kafka_acl.sample_acl (expand)</title>
<path fill="none" stroke="black" d="M1161.23,-431.7C1162,-423.98 1162.93,-414.71 1163.79,-406.11"/>
<polygon fill="black" stroke="black" points="1167.28,-406.4 1164.79,-396.1 1160.31,-405.71 1167.28,-406.4"/>
</g>
<!-- [root] provider[&quot;registry.terraform.io/aiven/aiven&quot;] (close)&#45;&gt;[root] aiven_kafka_topic.sample_topic (expand) -->
<g id="edge30" class="edge">
<title>[root] provider[&quot;registry.terraform.io/aiven/aiven&quot;] (close)&#45;&gt;[root] aiven_kafka_topic.sample_topic (expand)</title>
<path fill="none" stroke="black" d="M1208.56,-432.41C1237.79,-422.52 1275.13,-409.9 1306.16,-399.4"/>
<polygon fill="black" stroke="black" points="1307.64,-402.6 1316,-396.08 1305.4,-395.97 1307.64,-402.6"/>
</g>
<!-- [root] provider[&quot;registry.terraform.io/aiven/aiven&quot;] (close)&#45;&gt;[root] aiven_service_integration.samplegrafana_dashboards (expand) -->
<g id="edge31" class="edge">
<title>[root] provider[&quot;registry.terraform.io/aiven/aiven&quot;] (close)&#45;&gt;[root] aiven_service_integration.samplegrafana_dashboards (expand)</title>
<path fill="none" stroke="black" d="M1006.28,-437.18C981.62,-435.38 956.36,-433.59 932.5,-432 662.2,-413.98 591.56,-418.12 317.31,-396.04"/>
<polygon fill="black" stroke="black" points="317.3,-392.53 307.05,-395.21 316.74,-399.51 317.3,-392.53"/>
</g>
<!-- [root] provider[&quot;registry.terraform.io/aiven/aiven&quot;] (close)&#45;&gt;[root] aiven_service_integration.samplekafka_metrics (expand) -->
<g id="edge32" class="edge">
<title>[root] provider[&quot;registry.terraform.io/aiven/aiven&quot;] (close)&#45;&gt;[root] aiven_service_integration.samplekafka_metrics (expand)</title>
<path fill="none" stroke="black" d="M1067.77,-433.64C1004.68,-423.07 920.51,-408.98 853.46,-397.75"/>
<polygon fill="black" stroke="black" points="853.72,-394.24 843.28,-396.04 852.56,-401.15 853.72,-394.24"/>
</g>
<!-- [root] provider[&quot;registry.terraform.io/aiven/aiven&quot;] (close)&#45;&gt;[root] aiven_service_integration.samplepg_metrics (expand) -->
<g id="edge33" class="edge">
<title>[root] provider[&quot;registry.terraform.io/aiven/aiven&quot;] (close)&#45;&gt;[root] aiven_service_integration.samplepg_metrics (expand)</title>
<path fill="none" stroke="black" d="M1014.53,-436.53C902.89,-426.66 744.45,-412.08 595.93,-396.14"/>
<polygon fill="black" stroke="black" points="596.02,-392.63 585.71,-395.04 595.27,-399.59 596.02,-392.63"/>
</g>
<!-- [root] provider[&quot;registry.terraform.io/aiven/aiven&quot;] (close)&#45;&gt;[root] aiven_service_user.kafka_a (expand) -->
<g id="edge34" class="edge">
<title>[root] provider[&quot;registry.terraform.io/aiven/aiven&quot;] (close)&#45;&gt;[root] aiven_service_user.kafka_a (expand)</title>
<path fill="none" stroke="black" d="M1116.63,-432.23C1091.75,-422.51 1060.22,-410.17 1033.76,-399.83"/>
<polygon fill="black" stroke="black" points="1034.86,-396.5 1024.27,-396.12 1032.31,-403.02 1034.86,-396.5"/>
</g>
<!-- [root] root -->
<g id="node21" class="node">
<title>[root] root</title>
<ellipse fill="none" stroke="black" cx="953.5" cy="-522" rx="47.39" ry="18"/>
<text text-anchor="middle" x="953.5" y="-518.3" font-family="Times,serif" font-size="14.00">[root] root</text>
</g>
<!-- [root] root&#45;&gt;[root] meta.count&#45;boundary (EachMode fixup) -->
<g id="edge36" class="edge">
<title>[root] root&#45;&gt;[root] meta.count&#45;boundary (EachMode fixup)</title>
<path fill="none" stroke="black" d="M919.48,-509.44C888.54,-498.93 842.21,-483.18 805.44,-470.69"/>
<polygon fill="black" stroke="black" points="806.42,-467.33 795.83,-467.42 804.17,-473.95 806.42,-467.33"/>
</g>
<!-- [root] root&#45;&gt;[root] provider[&quot;registry.terraform.io/aiven/aiven&quot;] (close) -->
<g id="edge37" class="edge">
<title>[root] root&#45;&gt;[root] provider[&quot;registry.terraform.io/aiven/aiven&quot;] (close)</title>
<path fill="none" stroke="black" d="M987.52,-509.44C1018.36,-498.96 1064.47,-483.29 1101.19,-470.82"/>
<polygon fill="black" stroke="black" points="1102.44,-474.08 1110.79,-467.55 1100.19,-467.46 1102.44,-474.08"/>
</g>
</g>
</svg>
